HIERARCHY
ROOT hip
{
  OFFSET -176.6 84.7781 25.4655
  CHANNELS 6 Xposition Yposition Zposition Zrotation Xrotation Yrotation
  JOINT abdomen
  {
    OFFSET 0 20.6881 -0.73152
    CHANNELS 3 Zrotation Xrotation Yrotation
    JOINT chest
    {
      OFFSET 0 11.7043 -0.48768
      CHANNELS 3 Zrotation Xrotation Yrotation
      JOINT neck
      {
        OFFSET 0 22.1894 -2.19456
        CHANNELS 3 Zrotation Xrotation Yrotation
        JOINT head
        {
          OFFSET -0.24384 7.07133 1.2192
          CHANNELS 3 Zrotation Xrotation Yrotation
          JOINT leftEye
          {
            OFFSET 4.14528 8.04674 8.04672
            CHANNELS 3 Zrotation Xrotation Yrotation
            End Site
            {
              OFFSET 1 0 0
            }
          }
          JOINT rightEye
          {
            OFFSET -3.6576 8.04674 8.04672
            CHANNELS 3 Zrotation Xrotation Yrotation
            End Site
            {
              OFFSET 1 0 0
            }
          }
        }
      }
      JOINT rCollar
      {
        OFFSET -2.68224 19.2634 -4.8768
        CHANNELS 3 Zrotation Xrotation Yrotation
        JOINT rShldr
        {
          OFFSET -8.77824 -1.95073 1.46304
          CHANNELS 3 Zrotation Xrotation Yrotation
          JOINT rForeArm
          {
            OFFSET -28.1742 -1.7115 0.48768
            CHANNELS 3 Zrotation Xrotation Yrotation
            JOINT rHand
            {
              OFFSET -22.5879 0.773209 7.07136
              CHANNELS 3 Zrotation Xrotation Yrotation
              JOINT rThumb1
              {
                OFFSET -1.2192 -0.487915 3.41376
                CHANNELS 3 Zrotation Xrotation Yrotation
                JOINT rThumb2
                {
                  OFFSET -3.37035 -0.52449 3.41376
                  CHANNELS 3 Zrotation Xrotation Yrotation
                  End Site
                  {
                    OFFSET -1.78271 -1.18214 1.43049
                  }
                }
              }
              JOINT rIndex1
              {
                OFFSET -7.75947 0.938293 5.60832
                CHANNELS 3 Zrotation Xrotation Yrotation
                JOINT rIndex2
                {
                  OFFSET -2.54057 -0.884171 1.56538
                  CHANNELS 3 Zrotation Xrotation Yrotation
                  End Site
                  {
                    OFFSET -1.62519 -0.234802 1.16502
                  }
                }
              }
              JOINT rMid1
              {
                OFFSET -8.24714 1.18213 3.41376
                CHANNELS 3 Zrotation Xrotation Yrotation
                JOINT rMid2
                {
                  OFFSET -3.10165 -0.590103 1.0647
                  CHANNELS 3 Zrotation Xrotation Yrotation
                  End Site
                  {
                    OFFSET -2.48547 -0.328903 0.83742
                  }
                }
              }
              JOINT rRing1
              {
                OFFSET -8.82822 0.546677 1.51678
                CHANNELS 3 Zrotation Xrotation Yrotation
                JOINT rRing2
                {
                  OFFSET -2.60934 -0.819778 -0.0198488
                  CHANNELS 3 Zrotation Xrotation Yrotation
                  End Site
                  {
                    OFFSET -2.33842 -0.294052 0.168128
                  }
                }
              }
              JOINT rPinky1
              {
                OFFSET -8.27202 -0.0477905 -0.4584
                CHANNELS 3 Zrotation Xrotation Yrotation
                JOINT rPinky2
                {
                  OFFSET -1.82734 -0.647385 -0.700984
                  CHANNELS 3 Zrotation Xrotation Yrotation
                  End Site
                  {
                    OFFSET -1.69225 -0.51767 -0.607171
                  }
                }
              }
            }
          }
        }
      }
      JOINT lCollar
      {
        OFFSET 2.68224 19.2634 -4.8768
        CHANNELS 3 Zrotation Xrotation Yrotation
        JOINT lShldr
        {
          OFFSET 8.77824 -1.95073 1.46304
          CHANNELS 3 Zrotation Xrotation Yrotation
          JOINT lForeArm
          {
            OFFSET 28.1742 -1.7115 0.48768
            CHANNELS 3 Zrotation Xrotation Yrotation
            JOINT lHand
            {
              OFFSET 22.5879 0.773209 7.07136
              CHANNELS 3 Zrotation Xrotation Yrotation
              JOINT lThumb1
              {
                OFFSET 1.2192 -0.487915 3.41376
                CHANNELS 3 Zrotation Xrotation Yrotation
                JOINT lThumb2
                {
                  OFFSET 3.37035 -0.52449 3.41376
                  CHANNELS 3 Zrotation Xrotation Yrotation
                  End Site
                  {
                    OFFSET 1.78271 -1.18214 1.43049
                  }
                }
              }
              JOINT lIndex1
              {
                OFFSET 7.75947 0.938293 5.60832
                CHANNELS 3 Zrotation Xrotation Yrotation
                JOINT lIndex2
                {
                  OFFSET 2.54057 -0.884171 1.56538
                  CHANNELS 3 Zrotation Xrotation Yrotation
                  End Site
                  {
                    OFFSET 1.62519 -0.234802 1.16502
                  }
                }
              }
              JOINT lMid1
              {
                OFFSET 8.24714 1.18213 3.41376
                CHANNELS 3 Zrotation Xrotation Yrotation
                JOINT lMid2
                {
                  OFFSET 3.10165 -0.590103 1.0647
                  CHANNELS 3 Zrotation Xrotation Yrotation
                  End Site
                  {
                    OFFSET 2.48547 -0.328903 0.83742
                  }
                }
              }
              JOINT lRing1
              {
                OFFSET 8.82822 0.546677 1.51678
                CHANNELS 3 Zrotation Xrotation Yrotation
                JOINT lRing2
                {
                  OFFSET 2.60934 -0.819778 -0.0198488
                  CHANNELS 3 Zrotation Xrotation Yrotation
                  End Site
                  {
                    OFFSET 2.33842 -0.294052 0.168128
                  }
                }
              }
              JOINT lPinky1
              {
                OFFSET 8.27202 -0.0477905 -0.4584
                CHANNELS 3 Zrotation Xrotation Yrotation
                JOINT lPinky2
                {
                  OFFSET 1.82734 -0.647385 -0.700984
                  CHANNELS 3 Zrotation Xrotation Yrotation
                  End Site
                  {
                    OFFSET 1.69225 -0.51767 -0.607171
                  }
                }
              }
            }
          }
        }
      }
    }
  }
  JOINT rButtock
  {
    OFFSET -8.77824 4.35084 1.2192
    CHANNELS 3 Zrotation Xrotation Yrotation
    JOINT rThigh
    {
      OFFSET 0 -1.70687 -2.19456
      CHANNELS 3 Zrotation Xrotation Yrotation
      JOINT rShin
      {
        OFFSET 0 -36.8199 0.73152
        CHANNELS 3 Zrotation Xrotation Yrotation
        JOINT rFoot
        {
          OFFSET 0.73152 -45.1104 -5.12064
          CHANNELS 3 Zrotation Xrotation Yrotation
          End Site
          {
            OFFSET -1.1221 -3.69964 12.103
          }
        }
      }
    }
  }
  JOINT lButtock
  {
    OFFSET 8.77824 4.35084 1.2192
    CHANNELS 3 Zrotation Xrotation Yrotation
    JOINT lThigh
    {
      OFFSET 0 -1.70687 -2.19456
      CHANNELS 3 Zrotation Xrotation Yrotation
      JOINT lShin
      {
        OFFSET 0 -36.8199 0.73152
        CHANNELS 3 Zrotation Xrotation Yrotation
        JOINT lFoot
        {
          OFFSET -0.73152 -45.1104 -5.12064
          CHANNELS 3 Zrotation Xrotation Yrotation
          End Site
          {
            OFFSET 1.1221 -3.69964 12.103
          }
        }
      }
    }
  }
}
MOTION
Frames:	6
Frame Time:	0.00833333
-6.6393 82.7056 24.4936 10.9521 7.27322 -99.4819 11.3591 4.09025 -0.627775 0.334226 -0.322933 -0.210162 -12.0964 14.8405 -17.4708 31.2263 -18.3999 -30.6129 -0 0 0 -0 0 0 -2.08326e-013 3.97853e-012 -4.45851e-013 9.9448 57.9799 26.3798 -22.6854 -50.9198 107.209 -0.353922 16.5737 2.39791 2.32142e-009 -2.87044e-009 -1.28054e-009 4.01511e-009 -4.97018e-009 -2.24617e-009 2.32143e-009 -2.87044e-009 -1.28056e-009 7.73091 5.47488 0.417314 2.32142e-009 -2.87044e-009 -1.28053e-009 2.90554 0.965183 0.102902 2.32142e-009 -2.87044e-009 -1.28053e-009 10.2786 0.731801 0.0259123 2.32142e-009 -2.87044e-009 -1.28052e-009 2.22167 -0.733487 -0.20892 -2.08457e-013 3.97851e-012 -4.46022e-013 -81.7926 2.46427 19.3506 12.4756 -5.78835 -22.5337 1.15779 29.0177 -4.47137 6.33428e-009 -4.72319e-009 -1.31168e-009 1.09108e-008 -8.23247e-009 -2.41595e-009 6.33427e-009 -4.7232e-009 -1.31168e-009 -7.73091 5.47488 -0.417314 6.33427e-009 -4.7232e-009 -1.31169e-009 -2.90554 0.965183 -0.102902 6.33427e-009 -4.7232e-009 -1.31168e-009 -10.2786 0.731801 -0.0259123 6.33428e-009 -4.72321e-009 -1.3117e-009 -2.22167 -0.733487 0.20892 -2.03217e-016 0 -3.88251e-019 10.705 -7.9767 4.83633 -0.131276 21.743 0.274697 -2.88701 -14.8806 -7.57578 2.03217e-016 0 3.88251e-019 18.8238 -43.3573 2.7869 0.0657789 19.3365 0.0822423 0.958168 -1.72592 7.00769 
-7.62481 82.5745 24.4928 10.9224 7.31884 -99.7563 11.2303 4.04957 -0.788463 0.200028 -0.288861 -0.2583 -12.17 15.1279 -17.7211 31.7264 -18.7287 -31.0692 -0 0 0 -0 0 0 -2.68488e-013 3.53216e-012 -2.33597e-013 4.56202 58.7957 28.8341 -22.3381 -51.276 108.18 -0.420037 18.0432 2.62433 2.18e-009 -3.59124e-009 -2.19735e-010 3.77524e-009 -6.2248e-009 -4.11804e-010 2.18001e-009 -3.59124e-009 -2.19747e-010 7.73091 5.47488 0.417314 2.18e-009 -3.59124e-009 -2.19732e-010 2.90554 0.965183 0.102902 2.18001e-009 -3.59124e-009 -2.19731e-010 10.2786 0.731801 0.0259123 2.18e-009 -3.59124e-009 -2.19717e-010 2.22167 -0.733487 -0.20892 -2.68674e-013 3.53215e-012 -2.33799e-013 -81.3947 1.78275 19.0973 12.1855 -5.58127 -21.967 1.19758 29.457 -4.55274 4.72386e-009 -3.12915e-009 -3.17349e-010 8.15292e-009 -5.47053e-009 -6.61705e-010 4.72385e-009 -3.12915e-009 -3.17346e-010 -7.73091 5.47488 -0.417314 4.72386e-009 -3.12915e-009 -3.17354e-010 -2.90554 0.965183 -0.102902 4.72386e-009 -3.12916e-009 -3.17349e-010 -10.2786 0.731801 -0.0259123 4.72386e-009 -3.12916e-009 -3.17367e-010 -2.22167 -0.733487 0.20892 -2.03217e-016 0 -3.88251e-019 10.5961 -7.45619 4.82773 -0.134352 22.0724 0.276172 -2.81661 -15.0969 -7.30246 2.03217e-016 0 3.88251e-019 19.1068 -43.1536 2.9657 0.0651536 19.1345 0.0966298 0.915583 -1.77515 6.60701 
-8.62978 82.4431 24.5042 10.8658 7.359 -99.9967 11.0924 4.01108 -0.972554 0.0586953 -0.273332 -0.313053 -12.2299 15.4151 -17.9661 32.2131 -19.0663 -31.5176 -0 0 0 -0 0 0 -3.08075e-013 2.81696e-012 -3.10368e-015 -0.261649 59.0795 30.6848 -22.0952 -51.5189 108.846 -0.471188 19.1246 2.79324 1.86199e-009 -4.05317e-009 9.05883e-010 3.23005e-009 -7.03063e-009 1.53636e-009 1.862e-009 -4.05317e-009 9.05879e-010 7.73091 5.47488 0.417314 1.86199e-009 -4.05317e-009 9.05886e-010 2.90554 0.965183 0.102902 1.862e-009 -4.05317e-009 9.05888e-010 10.2786 0.731801 0.0259123 1.86199e-009 -4.05317e-009 9.05902e-010 2.22167 -0.733487 -0.20892 -3.08313e-013 2.81695e-012 -3.33547e-015 -80.9825 1.18704 18.8417 11.9169 -5.39222 -21.4463 1.23801 29.895 -4.63453 2.7392e-009 -1.26094e-009 7.38284e-010 4.74967e-009 -2.23014e-009 1.20731e-009 2.73919e-009 -1.26094e-009 7.38286e-010 -7.73091 5.47488 -0.417314 2.7392e-009 -1.26094e-009 7.38278e-010 -2.90554 0.965183 -0.102902 2.7392e-009 -1.26094e-009 7.38284e-010 -10.2786 0.731801 -0.0259123 2.7392e-009 -1.26094e-009 7.38267e-010 -2.22167 -0.733487 0.20892 -2.03217e-016 0 -3.88251e-019 10.4659 -6.98147 4.80771 -0.137566 22.5278 0.282273 -2.74042 -15.2636 -7.03266 2.03217e-016 0 3.88251e-019 19.3418 -42.9787 3.24096 0.0669195 19.2508 0.103876 0.850936 -1.66694 6.11364 
-9.65467 82.312 24.5326 10.7863 7.37313 -100.166 10.9263 3.9701 -1.20301 -0.09045 -0.290336 -0.381032 -12.2789 15.6938 -18.1994 32.7029 -19.394 -31.9484 -0 0 0 -0 0 0 -3.06005e-013 2.08585e-012 1.51176e-013 -4.05105 58.8293 31.5741 -22.0673 -51.5574 108.923 -0.498277 19.6506 2.87655 1.60771e-009 -4.05421e-009 1.46233e-009 2.79196e-009 -7.03377e-009 2.50083e-009 1.60771e-009 -4.05421e-009 1.46233e-009 7.73091 5.47488 0.417314 1.60771e-009 -4.05421e-009 1.46233e-009 2.90554 0.965183 0.102902 1.60771e-009 -4.05421e-009 1.46234e-009 10.2786 0.731801 0.0259123 1.6077e-009 -4.05421e-009 1.46235e-009 2.22167 -0.733487 -0.20892 -3.06272e-013 2.08584e-012 1.50927e-013 -80.5601 0.68813 18.6135 11.6963 -5.23795 -21.0236 1.28102 30.3511 -4.72042 1.39937e-009 -1.19665e-010 1.25073e-009 2.44753e-009 -2.46506e-010 2.12374e-009 1.39937e-009 -1.19664e-010 1.25073e-009 -7.73091 5.47488 -0.417314 1.39937e-009 -1.19664e-010 1.25072e-009 -2.90554 0.965183 -0.102902 1.39937e-009 -1.19665e-010 1.25073e-009 -10.2786 0.731801 -0.0259123 1.39938e-009 -1.19665e-010 1.25071e-009 -2.22167 -0.733487 0.20892 -2.03217e-016 0 -3.88251e-019 10.2981 -6.59525 4.77013 -0.141392 23.1529 0.293455 -2.66294 -15.3451 -6.7858 2.03217e-016 0 3.88251e-019 19.47 -42.8638 3.56622 0.0711217 19.6453 0.105434 0.764556 -1.32038 5.58155 
-10.696 82.1843 24.5774 10.6869 7.36702 -100.251 10.74 3.92289 -1.48515 -0.25079 -0.353241 -0.463583 -12.3208 15.9688 -18.4214 33.2092 -19.7162 -32.3614 -0 0 0 -0 0 0 -2.39274e-013 1.25576e-012 1.98701e-013 -6.62221 57.9749 31.2889 -22.2038 -51.3585 108.551 -0.479164 19.302 2.82111 1.47366e-009 -3.32491e-009 1.14415e-009 2.55708e-009 -5.7644e-009 1.95341e-009 1.47366e-009 -3.3249e-009 1.14415e-009 7.73091 5.47488 0.417314 1.47365e-009 -3.3249e-009 1.14415e-009 2.90554 0.965183 0.102902 1.47366e-009 -3.3249e-009 1.14416e-009 10.2786 0.731801 0.0259123 1.47365e-009 -3.32491e-009 1.14417e-009 2.22167 -0.733487 -0.20892 -2.39541e-013 1.25576e-012 1.98456e-013 -80.1219 0.307711 18.4232 11.5318 -5.12425 -20.71 1.33143 30.8752 -4.81998 1.10285e-009 -1.69076e-010 8.61491e-010 1.92631e-009 -3.20641e-010 1.45935e-009 1.10284e-009 -1.69076e-010 8.61497e-010 -7.73091 5.47488 -0.417314 1.10285e-009 -1.69077e-010 8.61486e-010 -2.90554 0.965183 -0.102902 1.10285e-009 -1.69077e-010 8.61492e-010 -10.2786 0.731801 -0.0259123 1.10285e-009 -1.69076e-010 8.61477e-010 -2.22167 -0.733487 0.20892 -2.03217e-016 0 -3.88251e-019 10.0934 -6.29469 4.71194 -0.145856 23.9504 0.311523 -2.59575 -15.3765 -6.58127 2.03217e-016 0 3.88251e-019 19.4952 -42.845 3.99547 0.0786815 20.4246 0.0991302 0.6525 -0.594515 4.99151 
-11.7508 82.0634 24.6404 10.5651 7.35086 -100.272 10.5392 3.87273 -1.80699 -0.42117 -0.451372 -0.557321 -12.3536 16.2423 -18.6346 33.7206 -20.0404 -32.7609 -0 0 0 -0 0 0 -1.24921e-013 2.41979e-013 1.91632e-013 -8.28492 56.5567 30.1087 -22.4682 -50.9731 107.814 -0.42427 18.2595 2.65677 1.3342e-009 -2.04485e-009 3.34938e-010 2.31008e-009 -3.53641e-009 5.57925e-010 1.3342e-009 -2.04485e-009 3.34924e-010 7.73091 5.47488 0.417314 1.33419e-009 -2.04485e-009 3.34936e-010 2.90554 0.965183 0.102902 1.3342e-009 -2.04485e-009 3.34939e-010 10.2786 0.731801 0.0259123 1.33419e-009 -2.04485e-009 3.34951e-010 2.22167 -0.733487 -0.20892 -1.25168e-013 2.4198e-013 1.91402e-013 -79.6649 0.034649 18.2525 11.4112 -5.04294 -20.4782 1.38755 31.4419 -4.92894 1.26389e-009 -8.09652e-010 -4.12742e-011 2.18319e-009 -1.41434e-009 -1.02065e-010 1.26388e-009 -8.09655e-010 -4.1265e-011 -7.73091 5.47488 -0.417314 1.26388e-009 -8.09656e-010 -4.12776e-011 -2.90554 0.965183 -0.102902 1.26388e-009 -8.09656e-010 -4.12739e-011 -10.2786 0.731801 -0.0259123 1.26389e-009 -8.09653e-010 -4.12868e-011 -2.22167 -0.733487 0.20892 -2.03217e-016 0 -3.88251e-019 9.85927 -6.06173 4.6367 -0.151372 24.9 0.335989 -2.53428 -15.3622 -6.40426 2.03217e-016 0 3.88251e-019 19.4445 -42.8946 4.53295 0.0897531 21.5709 0.0849047 0.533664 0.429192 4.32728 
